<svg xmlns="http://www.w3.org/2000/svg" width="24" height="24" viewBox="0 0 24 24"><defs><style>.a,.d{fill:none;}.a{stroke:#9c9c9c;}.b{fill:#9c9c9c;}.c{stroke:none;}</style></defs><g transform="translate(-1405 -4399)"><g class="a" transform="translate(1405 4399)"><circle class="c" cx="12" cy="12" r="12"/><circle class="d" cx="12" cy="12" r="11.5"/></g><g transform="translate(1412.2 4406.2)"><path class="b" d="M7,0H2.6A2.6,2.6,0,0,0,0,2.6V7A2.6,2.6,0,0,0,2.6,9.6H7A2.6,2.6,0,0,0,9.6,7V2.6A2.6,2.6,0,0,0,7,0ZM4.8,7.425A2.625,2.625,0,1,1,7.424,4.8,2.628,2.628,0,0,1,4.8,7.425ZM7.487,2.794a.776.776,0,1,1,.776-.776A.776.776,0,0,1,7.487,2.794Zm0,0" transform="translate(0.001 0)"/><path class="b" d="M148.082,146.02a2.062,2.062,0,1,0,2.062,2.062A2.064,2.064,0,0,0,148.082,146.02Zm0,0" transform="translate(-143.282 -143.282)"/><path class="b" d="M388.205,96.3a.213.213,0,1,0,.213.213A.213.213,0,0,0,388.205,96.3Zm0,0" transform="translate(-380.718 -94.495)"/></g></g></svg>