<svg xmlns="http://www.w3.org/2000/svg" width="24" height="24" viewBox="0 0 24 24"><defs><style>.a,.d{fill:none;}.a{stroke:#9c9c9c;}.b{fill:#9c9c9c;}.c{stroke:none;}</style></defs><g transform="translate(-1405 -4451)"><g class="a" transform="translate(1405 4451)"><circle class="c" cx="12" cy="12" r="12"/><circle class="d" cx="12" cy="12" r="11.5"/></g><g transform="translate(1412.2 4458.2)"><path class="b" d="M1.164-.668A1.074,1.074,0,0,0,0,.4a1.065,1.065,0,0,0,1.137,1.07h.013A1.073,1.073,0,1,0,1.164-.668Zm0,0" transform="translate(0 0.668)"/><path class="b" d="M8.109,198.313h2.058V204.5H8.109Zm0,0" transform="translate(-7.988 -195.328)"/><path class="b" d="M225.128,188.625a2.578,2.578,0,0,0-1.855,1.043v-.9h-2.058v6.191h2.058V191.5a1.41,1.41,0,0,1,.068-.5,1.127,1.127,0,0,1,1.056-.753c.745,0,1.042.568,1.042,1.4v3.312H227.5v-3.55c0-1.9-1.015-2.787-2.369-2.787Zm0,0" transform="translate(-217.897 -185.786)"/></g></g></svg>